<svg xmlns="http://www.w3.org/2000/svg" viewBox="0 0 352 335" width="352" height="335" font-family="Carlito, sans-serif"><rect width="352" height="335" fill="#0E1726"/><defs><linearGradient id="dk_g0" gradientUnits="userSpaceOnUse" x1="219.63" y1="117.88" x2="163.64" y2="166.21"><stop offset="0" stop-color="#4F46E5"/><stop offset="1" stop-color="#6E54E6"/></linearGradient><linearGradient id="dk_g1" gradientUnits="userSpaceOnUse" x1="163.64" y1="166.21" x2="134.19" y2="110.46"><stop offset="0" stop-color="#6E54E6"/><stop offset="1" stop-color="#9A5BC8"/></linearGradient><linearGradient id="dk_g2" gradientUnits="userSpaceOnUse" x1="134.19" y1="110.46" x2="182.18" y2="80.43"><stop offset="0" stop-color="#9A5BC8"/><stop offset="1" stop-color="#FF6B5B"/></linearGradient></defs><path d="M 219.632 117.876 A 44.0 44.0 0 0 1 161.132 165.390" fill="none" stroke="url(#dk_g0)" stroke-width="14.5" stroke-linecap="round"/><path d="M 166.186 166.878 A 44.0 44.0 0 0 1 135.080 107.980" fill="none" stroke="url(#dk_g1)" stroke-width="14.5" stroke-linecap="butt"/><path d="M 133.459 112.992 A 44.0 44.0 0 0 1 182.184 80.428" fill="none" stroke="url(#dk_g2)" stroke-width="14.5" stroke-linecap="round"/><g transform="translate(176.06,124.0) rotate(45)"><path d="M 0 -36.0 L 6.0 -6.0 L 19.0 0 L 6.0 6.0 L 0 23.0 L -6.0 6.0 L -19.0 0 L -6.0 -6.0 Z" fill="#EAF0FF" stroke-linejoin="round"/></g><circle cx="216.51" cy="83.55" r="4.93" fill="#FF6B5B"/><g fill="#EAF0FF" transform="translate(60.00,266.91) scale(0.02930,-0.02930)"><path transform="translate(0.00,0)" d="M1216 128Q1116 53 1003.0 19.5Q890 -14 763 -14Q602 -14 471.5 36.5Q341 87 248.0 177.5Q155 268 104.5 392.5Q54 517 54 665Q54 814 102.0 938.5Q150 1063 239.5 1153.0Q329 1243 455.5 1293.0Q582 1343 738 1343Q819 1343 889.0 1330.0Q959 1317 1019.0 1294.0Q1079 1271 1128.5 1239.0Q1178 1207 1218 1168L1143 1050Q1126 1022 1097.5 1015.5Q1069 1009 1036 1029Q1005 1048 974.0 1064.5Q943 1081 907.5 1093.5Q872 1106 829.0 1113.0Q786 1120 730 1120Q636 1120 561.0 1087.5Q486 1055 433.0 996.0Q380 937 351.5 852.5Q323 768 323 665Q323 553 354.0 465.0Q385 377 441.5 316.5Q498 256 578.0 224.5Q658 193 756 193Q822 193 874.5 206.5Q927 220 978 244V476H825Q801 476 786.5 490.0Q772 504 772 524V672H1216V128Z"/><path transform="translate(1305.00,0)" d="M552 1009Q661 1009 751.0 973.5Q841 938 905.0 871.5Q969 805 1004.0 710.5Q1039 616 1039 499Q1039 380 1004.0 285.0Q969 190 905.0 123.5Q841 57 751.0 21.0Q661 -15 552 -15Q442 -15 351.5 21.0Q261 57 196.5 123.5Q132 190 97.0 285.0Q62 380 62 499Q62 616 97.0 710.5Q132 805 196.5 871.5Q261 938 351.5 973.5Q442 1009 552 1009ZM552 179Q667 179 722.0 259.5Q777 340 777 497Q777 654 722.0 734.5Q667 815 552 815Q435 815 379.5 734.5Q324 654 324 497Q324 340 379.5 259.5Q435 179 552 179Z"/><path transform="translate(2406.00,0)" d="M1216 128Q1116 53 1003.0 19.5Q890 -14 763 -14Q602 -14 471.5 36.5Q341 87 248.0 177.5Q155 268 104.5 392.5Q54 517 54 665Q54 814 102.0 938.5Q150 1063 239.5 1153.0Q329 1243 455.5 1293.0Q582 1343 738 1343Q819 1343 889.0 1330.0Q959 1317 1019.0 1294.0Q1079 1271 1128.5 1239.0Q1178 1207 1218 1168L1143 1050Q1126 1022 1097.5 1015.5Q1069 1009 1036 1029Q1005 1048 974.0 1064.5Q943 1081 907.5 1093.5Q872 1106 829.0 1113.0Q786 1120 730 1120Q636 1120 561.0 1087.5Q486 1055 433.0 996.0Q380 937 351.5 852.5Q323 768 323 665Q323 553 354.0 465.0Q385 377 441.5 316.5Q498 256 578.0 224.5Q658 193 756 193Q822 193 874.5 206.5Q927 220 978 244V476H825Q801 476 786.5 490.0Q772 504 772 524V672H1216V128Z"/><path transform="translate(3711.00,0)" d="M90 0ZM379 993V0H125V993ZM410 1278Q410 1245 397.0 1216.5Q384 1188 362.0 1166.5Q340 1145 310.0 1132.5Q280 1120 247 1120Q215 1120 186.5 1132.5Q158 1145 136.5 1166.5Q115 1188 102.5 1216.5Q90 1245 90 1278Q90 1311 102.5 1340.0Q115 1369 136.5 1390.5Q158 1412 186.5 1424.5Q215 1437 247 1437Q280 1437 310.0 1424.5Q340 1412 362.0 1390.5Q384 1369 397.0 1340.0Q410 1311 410 1278Z"/><path transform="translate(4214.00,0)" d="M379 1437V0H125V1437Z"/><path transform="translate(4717.00,0)" d="M379 1437V0H125V1437Z"/><path transform="translate(5220.00,0)" d="M90 0ZM379 993V0H125V993ZM410 1278Q410 1245 397.0 1216.5Q384 1188 362.0 1166.5Q340 1145 310.0 1132.5Q280 1120 247 1120Q215 1120 186.5 1132.5Q158 1145 136.5 1166.5Q115 1188 102.5 1216.5Q90 1245 90 1278Q90 1311 102.5 1340.0Q115 1369 136.5 1390.5Q158 1412 186.5 1424.5Q215 1437 247 1437Q280 1437 310.0 1424.5Q340 1412 362.0 1390.5Q384 1369 397.0 1340.0Q410 1311 410 1278Z"/><path transform="translate(5723.00,0)" d="M552 1009Q661 1009 751.0 973.5Q841 938 905.0 871.5Q969 805 1004.0 710.5Q1039 616 1039 499Q1039 380 1004.0 285.0Q969 190 905.0 123.5Q841 57 751.0 21.0Q661 -15 552 -15Q442 -15 351.5 21.0Q261 57 196.5 123.5Q132 190 97.0 285.0Q62 380 62 499Q62 616 97.0 710.5Q132 805 196.5 871.5Q261 938 351.5 973.5Q442 1009 552 1009ZM552 179Q667 179 722.0 259.5Q777 340 777 497Q777 654 722.0 734.5Q667 815 552 815Q435 815 379.5 734.5Q324 654 324 497Q324 340 379.5 259.5Q435 179 552 179Z"/><path transform="translate(6824.00,0)" d="M124 0V993H280Q304 993 320.5 982.0Q337 971 342 948L359 875Q389 905 421.0 929.5Q453 954 490.0 971.5Q527 989 568.5 999.0Q610 1009 660 1009Q741 1009 803.0 981.0Q865 953 907.0 903.0Q949 853 970.5 783.5Q992 714 992 632V0H738V632Q738 717 699.0 764.0Q660 811 582 811Q524 811 473.5 786.0Q423 761 378 716V0Z"/></g><g fill="#9AA7BD" transform="translate(88.28,293.17) scale(0.00781,-0.00781)"><path transform="translate(0.00,0)" d="M974 1314V1162H591V0H408V1162H24V1314Z"/><path transform="translate(1858.16,0)" d="M913 1314V1166H328V735H799V592H328V148H914L913 0H145V1314Z"/><path transform="translate(3718.32,0)" d="M954 274Q968 274 980 262L1052 184Q981 90 877.0 38.0Q773 -14 628 -14Q500 -14 396.5 35.0Q293 84 219.5 172.5Q146 261 106.5 384.5Q67 508 67 657Q67 806 109.0 929.5Q151 1053 227.0 1142.0Q303 1231 409.0 1280.0Q515 1329 643 1329Q770 1329 866.5 1284.0Q963 1239 1035 1162L975 1078Q969 1069 960.0 1063.0Q951 1057 937 1057Q920 1057 899.5 1075.0Q879 1093 846.0 1114.5Q813 1136 764.0 1154.0Q715 1172 642 1172Q556 1172 484.5 1137.0Q413 1102 361.5 1035.5Q310 969 281.5 873.5Q253 778 253 657Q253 535 283.0 439.0Q313 343 365.0 277.0Q417 211 487.5 176.0Q558 141 639 141Q689 141 728.5 148.0Q768 155 801.5 169.5Q835 184 864.5 206.5Q894 229 923 260Q939 274 954 274Z"/><path transform="translate(5670.48,0)" d="M1136 0H953V596H323V0H140V1314H323V729H953V1314H1136Z"/><path transform="translate(7806.64,0)" d="M243 1314Q266 1314 278.0 1308.5Q290 1303 305 1283L1019 300Q1017 324 1015.5 347.5Q1014 371 1014 391V1314H1174V0H1082Q1061 0 1046.5 7.0Q1032 14 1018 32L304 1012Q306 989 307.0 968.0Q308 947 308 928V0H148V1314H243Z"/><path transform="translate(9988.80,0)" d="M1284 657Q1284 509 1240.5 386.0Q1197 263 1117.5 174.0Q1038 85 926.5 35.5Q815 -14 679 -14Q544 -14 432.0 35.5Q320 85 240.0 174.0Q160 263 116.0 386.0Q72 509 72 657Q72 804 116.0 927.5Q160 1051 240.0 1140.5Q320 1230 432.0 1279.5Q544 1329 679 1329Q815 1329 926.5 1279.5Q1038 1230 1117.5 1140.5Q1197 1051 1240.5 927.5Q1284 804 1284 657ZM1098 657Q1098 777 1068.5 872.5Q1039 968 984.5 1034.5Q930 1101 852.5 1136.5Q775 1172 679 1172Q583 1172 505.5 1136.5Q428 1101 373.0 1034.5Q318 968 288.5 872.5Q259 777 259 657Q259 537 288.5 441.5Q318 346 373.0 279.5Q428 213 505.5 178.0Q583 143 679 143Q775 143 852.5 178.0Q930 213 984.5 279.5Q1039 346 1068.5 441.5Q1098 537 1098 657Z"/><path transform="translate(12204.96,0)" d="M320 153H827V0H138V1314H320Z"/><path transform="translate(13926.12,0)" d="M1284 657Q1284 509 1240.5 386.0Q1197 263 1117.5 174.0Q1038 85 926.5 35.5Q815 -14 679 -14Q544 -14 432.0 35.5Q320 85 240.0 174.0Q160 263 116.0 386.0Q72 509 72 657Q72 804 116.0 927.5Q160 1051 240.0 1140.5Q320 1230 432.0 1279.5Q544 1329 679 1329Q815 1329 926.5 1279.5Q1038 1230 1117.5 1140.5Q1197 1051 1240.5 927.5Q1284 804 1284 657ZM1098 657Q1098 777 1068.5 872.5Q1039 968 984.5 1034.5Q930 1101 852.5 1136.5Q775 1172 679 1172Q583 1172 505.5 1136.5Q428 1101 373.0 1034.5Q318 968 288.5 872.5Q259 777 259 657Q259 537 288.5 441.5Q318 346 373.0 279.5Q428 213 505.5 178.0Q583 143 679 143Q775 143 852.5 178.0Q930 213 984.5 279.5Q1039 346 1068.5 441.5Q1098 537 1098 657Z"/><path transform="translate(16142.28,0)" d="M1185 127Q1089 56 980.5 21.0Q872 -14 745 -14Q592 -14 468.5 35.0Q345 84 258.0 172.5Q171 261 124.0 384.5Q77 508 77 657Q77 807 122.5 930.5Q168 1054 252.5 1142.5Q337 1231 457.0 1280.0Q577 1329 726 1329Q802 1329 866.5 1317.5Q931 1306 986.0 1284.5Q1041 1263 1087.5 1232.0Q1134 1201 1174 1163L1123 1081Q1111 1061 1091.0 1056.0Q1071 1051 1048 1065Q1025 1078 997.5 1096.5Q970 1115 932.0 1131.5Q894 1148 842.0 1160.0Q790 1172 719 1172Q615 1172 530.5 1136.0Q446 1100 386.5 1033.0Q327 966 295.0 870.5Q263 775 263 657Q263 534 296.5 436.5Q330 339 392.5 271.5Q455 204 543.0 168.5Q631 133 740 133Q824 133 890.0 152.5Q956 172 1020 207V495H831Q813 495 802.0 505.0Q791 515 791 530V633H1185V127Z"/><path transform="translate(18294.44,0)" d="M349 0H167V1314H349Z"/><path transform="translate(19670.60,0)" d="M913 1314V1166H328V735H799V592H328V148H914L913 0H145V1314Z"/><path transform="translate(21530.76,0)" d="M797 1107Q782 1079 756 1079Q741 1079 720.5 1094.5Q700 1110 670.5 1128.5Q641 1147 599.5 1162.5Q558 1178 500 1178Q445 1178 403.5 1162.5Q362 1147 334.5 1119.5Q307 1092 293.0 1055.5Q279 1019 279 977Q279 922 304.5 886.0Q330 850 371.5 824.5Q413 799 466.0 780.0Q519 761 574.0 741.0Q629 721 682.0 695.5Q735 670 776.5 631.5Q818 593 843.5 537.0Q869 481 869 400Q869 313 841.0 237.5Q813 162 759.5 106.0Q706 50 628.0 18.0Q550 -14 450 -14Q329 -14 227.5 32.5Q126 79 55 158L108 244Q115 255 125.5 261.5Q136 268 150 268Q169 268 192.5 247.5Q216 227 251.0 202.5Q286 178 335.5 157.5Q385 137 454 137Q512 137 557.0 154.0Q602 171 633.5 202.0Q665 233 681.5 276.5Q698 320 698 373Q698 432 672.5 470.0Q647 508 605.5 533.5Q564 559 511.0 576.5Q458 594 403.0 613.0Q348 632 295.0 656.5Q242 681 200.5 721.0Q159 761 133.5 820.0Q108 879 108 967Q108 1036 134.0 1101.5Q160 1167 209.5 1217.5Q259 1268 331.5 1298.5Q404 1329 498 1329Q603 1329 690.5 1294.0Q778 1259 842 1192Z"/></g></svg>